<svg width="363" height="149" viewBox="0 0 363 149" fill="none" xmlns="http://www.w3.org/2000/svg">
<g clip-path="url(#clip0_1_2)">
<g clip-path="url(#clip1_1_2)">
<path d="M62.3546 112.668C58.8628 110.021 56.4429 106.787 51.4333 105.696C51.0115 105.604 50.3999 105.178 50.4193 104.93C50.6933 101.42 47.2059 99.3312 44.3165 97.3721C37.8943 93.0174 38.5177 87.2958 37.6224 81.8371C36.9435 77.698 36.4944 73.5389 35.937 69.3891C35.8329 68.6137 35.5586 67.5173 34.4684 67.6106C31.2505 67.8859 30.7813 66.0935 30.1842 64.6913C28.961 61.819 26.4939 60.7631 22.526 61.1718C21.3986 61.2879 20.177 61.4054 19.0307 60.8115C17.9861 58.5553 21.7137 57.2325 21.339 55.0707C19.9071 53.817 17.8569 54.678 16.1692 54.2582C13.9891 53.7158 12.6048 53.0355 13.9249 51.2004C14.2265 50.7809 14.3926 50.3072 14.7204 49.9009C17.1951 46.8331 17.0919 44.0796 13.0932 41.659C11.549 40.7242 10.9783 39.5689 13.3629 38.8109C21.2904 36.2912 19.0714 35.3002 15.8333 31.5156C15.5038 31.1305 15.2849 30.6953 15.0193 30.2905C16.4259 28.7826 18.6251 28.6799 20.5368 28.1846C23.2398 27.4842 25.2206 26.6073 23.6279 24.0841C22.8361 22.8296 22.6346 21.3778 22.1295 19.9088C24.3363 18.7025 26.754 19.2492 28.9878 19.2044C32.6823 19.1302 35.8763 18.8191 35.5672 15.2361C35.5043 14.5071 35.9378 13.7481 36.1974 13.0132C36.7233 11.5248 37.6712 11.0377 39.8759 11.7716C46.4025 13.9442 46.4422 13.8811 48.9598 8.75284C50.3351 5.95153 51.0064 5.79191 54.5807 7.41631C61.2119 10.4299 61.2145 10.431 65.2676 5.51953C65.6697 5.03231 66.1458 4.5491 66.3657 4.01564C67.2572 1.85363 68.6238 2.0157 70.453 3.45857C72.7153 5.24309 74.7139 7.2287 77.5534 8.7421C80.7156 6.66115 82.2519 3.8445 85.1498 1.51245C88.9874 3.77405 89.7151 7.49799 93.1337 9.93448C95.9776 9.2068 97.8561 7.60803 99.9814 6.25953C102.961 4.36929 103.697 4.48996 105.1 7.22612C105.69 8.3751 106.102 9.57712 106.501 10.7717C107.217 12.919 108.885 13.3034 111.394 12.2496C113.2 11.4908 114.958 10.6653 116.81 9.97216C119.386 9.00833 120.737 9.49672 120.679 11.7567C120.523 17.886 120.559 17.8864 128.331 16.1582C132.619 15.2047 133.506 15.7436 133.111 19.0095C132.917 20.6054 132.797 22.206 132.657 23.8051C132.65 23.8814 132.777 23.9638 132.983 24.2154C136.554 25.0479 140.558 23.6488 144.723 24.7868C143.842 26.9018 143.12 28.976 142.102 30.9702C141.317 32.5059 141.929 33.2498 143.972 33.7198C146.922 34.3986 149.822 35.1918 152.86 35.966C152.054 38.1891 149.826 39.4757 148.117 40.9425C145.751 42.9725 145.562 44.5932 148.171 46.6246C151.938 49.557 151.853 50.0964 146.7 51.8258C143.053 53.0498 142.042 54.4809 143.982 57.0349C144.48 57.6904 144.688 58.4606 145.05 59.1729C145.895 60.8395 145.241 61.6109 142.666 61.7407C136.292 62.0621 136.226 62.107 134.336 66.8703C133.598 68.7294 132.569 69.8549 129.413 68.6622C128.489 73.4592 127.633 78.0145 126.729 82.5649C126.136 85.5529 125.518 88.5392 124.826 91.5156C124.425 93.2347 123.165 94.6359 121.693 96.0189C118.965 98.5804 114.782 100.291 113.705 103.88C113.337 105.105 110.335 104.977 108.89 106.052C104.24 109.513 99.387 112.829 94.7166 116.277C91.9285 118.334 92.5361 119.775 96.3774 120.319C104.039 121.404 111.715 122.438 119.402 123.427C125.424 124.201 130.719 124.757 133.037 130.359C134.965 135.017 139.975 138.985 143.496 143.312C145.394 145.646 147.202 148.04 148.325 151.16C142.017 151.16 136.209 151.211 130.405 151.127C128.819 151.104 128.133 149.95 127.305 149.116C124.662 146.454 122.451 143.556 118.893 140.758C116.868 143.638 114.959 146.183 113.276 148.806C112.143 150.572 110.547 151.26 107.8 151.27C91.1036 151.332 74.4071 151.489 57.7128 151.707C55.1137 151.741 53.597 151.101 52.5587 149.396C50.9437 146.744 49.1136 144.161 47.1984 141.284C43.4461 142.953 41.7927 145.384 39.4749 147.353C37.5534 148.986 36.3522 151.545 33.3121 151.878C28.7118 152.383 23.939 152.311 19.2682 152.118C16.7816 152.015 17.6808 150.5 18.3904 149.495C21.668 144.858 24.8676 140.185 28.391 135.647C30.4839 132.951 32.2824 130.294 32.1103 127.108C31.9937 124.948 33.5918 123.915 36.4559 123.45C45.1214 122.046 53.892 121.221 62.7147 120.617C63.8793 120.538 65.0376 120.395 66.1917 120.251C67.8476 120.045 69.5452 120.027 69.7584 118.252C69.9697 116.493 68.8919 116.03 66.7679 115.663C64.8461 115.332 63.7018 113.975 62.3546 112.668ZM22.8404 57.6943C22.2432 58.8681 22.7811 59.7512 24.5095 59.5495C29.657 58.9486 31.8912 60.9302 32.953 64.1807C33.0979 64.6243 33.4485 65.0739 34.54 65.0735C36.501 63.6069 35.6776 61.5737 35.078 60.1283C32.7876 54.6068 36.1071 51.506 42.5409 49.1978C46.9829 47.6041 50.6203 44.9152 55.8876 43.4932C55.3469 46.7919 51.6843 48.4522 50.6435 51.4703C57.5171 49.8892 62.9524 46.6516 70.1988 45.3975C68.9773 48.29 66.2328 49.9132 65.4709 52.666C73.4698 51.5953 79.854 47.991 87.768 46.6829C87.0462 49.5901 83.4351 50.8916 82.8686 53.7453C90.5405 51.9538 97.2347 49.1705 104.985 47.8085C104.585 50.7803 100.648 51.91 99.9363 54.6426C107.12 53.6373 113.31 51.081 120.292 50.1454C120.071 52.2366 117.15 52.9355 116.81 54.9802C121.848 54.5229 126.17 52.6499 131.406 51.7655C130.919 54.4936 130.611 56.8171 130.072 59.112C129.109 63.2191 129.394 64.5676 132.094 65.5825C132.73 61.5275 134.571 58.282 141.176 59.4966C142.066 58.2676 141.437 57.482 141.073 56.6881C139.047 52.2744 138.786 51.9635 144.652 50.304C145.572 50.0436 146.657 49.7765 146.923 48.8531C146.426 47.5229 145.095 46.5699 143.76 45.7004C141.603 44.2962 141.798 43.1279 143.686 41.6381C145.553 40.165 148.019 39.0024 149.29 36.8474C146.569 36.3268 144.209 35.8083 141.807 35.432C138.579 34.9262 137.297 33.8309 138.892 31.437C139.895 29.9324 140.597 28.3215 141.525 26.5869C137.027 25.9168 132.987 26.8399 128.493 27.0289C129.117 24.5611 129.726 22.4626 130.161 20.3452C130.656 17.9362 129.932 17.5403 126.904 18.4243C124.288 19.1878 121.831 20.3109 118.13 20.413C118.13 18.5255 118.052 16.7509 118.149 14.9814C118.283 12.5606 116.771 12.4011 114.309 13.3924C111.733 14.43 109.591 16.0748 106.415 16.4625C104.005 13.7771 104.454 10.4178 102.353 7.59577C99.3447 8.33851 97.6958 9.96554 95.8655 11.3945C92.6508 13.9045 91.5498 13.7953 89.6638 10.5737C88.4878 8.56508 86.9291 6.75696 85.0012 5.00693C81.5488 7.02952 80.7281 10.2774 77.6737 12.485C74.0665 10.183 72.5028 6.84365 68.307 4.78591C66.6008 7.46986 64.9995 9.83429 63.5919 12.2582C62.6781 13.8318 61.4267 13.9998 59.6671 13.0771C57.3685 11.8718 55.0937 10.6425 52.8282 9.43389C50.3762 10.7493 50.3067 12.6637 49.4856 14.3183C47.9105 17.492 47.2712 17.6294 43.4845 15.7896C42.0211 15.0787 40.7563 14.0209 38.7555 14.1134C37.8809 15.0051 38.1273 15.9871 38.0609 16.9135C37.7263 21.5764 37.7405 21.577 31.173 21.2113C25.1699 20.8771 24.9011 21.127 26.8687 25.2165C26.998 25.4852 27.0943 25.7675 27.2744 26.0173C28.8616 28.2193 27.4673 29.0679 24.5529 29.5298C18.7947 30.4425 18.3713 31.1688 21.7139 34.6779C23.534 36.5887 23.1551 37.6631 20.2048 38.5311C18.4864 39.0367 16.3956 39.3713 15.7131 41.1022C16.1603 41.5339 16.5048 42.1023 17.1032 42.4058C20.924 44.3439 20.3975 46.5515 17.9986 48.9173C17.9215 48.9934 17.8596 49.078 17.7954 49.1605C15.3869 52.2544 15.8074 52.737 20.8775 52.7826C22.3771 52.7961 24.0506 52.4549 25.1221 53.6687C25.1452 55.1086 23.4543 56.0138 22.8404 57.6943ZM73.1166 99.9484C83.072 98.5226 93.0105 97.0301 102.989 95.6951C109.368 94.8417 109.539 95.0043 112.432 99.2062C112.585 99.4274 112.961 99.5669 113.224 99.7388C118.312 96.5476 122.413 93.1446 122.993 87.9256C123.662 81.9002 125.049 75.9177 126.09 69.9134C126.498 67.5596 127.653 65.2385 127.2 62.8605C125.311 62.5849 124.319 63.3278 123.191 63.7322C116.643 66.0801 110.038 68.353 103.614 70.8705C100.343 72.1523 97.9221 72.179 95.4729 69.9323C94.0108 68.5911 92.1833 67.3588 89.4173 66.6426C86.606 76.0055 83.8674 85.1262 81.1289 94.2469C80.7373 94.2365 80.3458 94.2261 79.9543 94.2157C78.4289 85.2142 77.8736 76.1104 75.7046 67.1011C73.3715 67.5553 71.9245 68.4243 70.6912 69.3574C65.7257 73.1145 60.5278 73.8573 54.718 70.3723C53.62 69.7136 52.3366 69.2138 51.1129 68.6714C46.9798 66.8394 42.8352 65.0213 38.0869 62.93C38.9817 68.1644 39.148 72.6969 39.6001 77.212C40.4458 85.6571 40.6086 94.1084 50.5904 100.186C51.3773 100.665 51.8972 101.37 52.6418 101.894C53.9629 102.823 55.4815 103.134 57.3023 102.626C62.1919 101.261 67.4795 101.111 73.1166 99.9484ZM99.8301 109.77C102.143 107.987 105.411 106.828 106.976 104.339C100.31 103.656 61.3792 105.224 58.9034 106.218C62.443 110.494 67.5855 114.413 70.6515 114.317C80.5203 114.006 91.4474 117.17 99.8301 109.77ZM60.1645 58.7997C53.5254 57.8415 46.8866 56.8824 40.2472 55.9255C37.0456 55.464 36.1996 56.4733 36.9262 58.6293C37.3539 59.8986 38.1482 60.8046 39.7494 61.5127C44.7621 63.7294 49.8063 65.9315 54.5863 68.3977C59.8149 71.0954 64.5263 71.7027 69.2317 67.8436C70.4076 66.8791 72.1393 66.2395 73.7159 65.5767C75.3368 64.8953 75.686 64.034 75.3448 62.7281C74.9961 61.3935 74.1261 60.8077 72.3077 60.5787C68.4612 60.0943 64.6506 59.4596 60.1645 58.7997ZM92.8303 61.2528C89.8482 62.3026 89.9093 63.7524 92.0053 65.2834C93.8399 66.6236 95.8759 67.8173 97.8096 69.0864C99.3846 70.1201 101.015 70.078 102.848 69.4149C109.494 67.0115 116.208 64.7083 122.831 62.272C128.522 60.178 129.188 59.0666 128.031 53.9828C116.792 57.2849 104.848 58.5141 92.8303 61.2528ZM103.325 143.576C106.859 142.326 105.595 139.824 106.129 137.806C106.436 136.644 107.182 135.035 104.758 134.802C102.019 134.539 98.993 133.997 96.4757 135.312C95.3179 135.916 95.9574 142.235 97.1621 142.913C98.8099 143.841 100.424 145.383 103.325 143.576ZM102.915 99.988C103.395 100.508 103.603 101.22 104.838 101.346C106.223 100.235 106.7 98.8701 106.918 97.395C102.409 96.9929 101.642 97.4358 102.915 99.988ZM107.603 102.83C108.713 102.681 109.93 102.74 110.823 101.928C110.588 100.796 110.24 99.6688 108.939 98.3844C108.292 100.083 106.363 101.079 107.603 102.83ZM99.9683 102.518C103.371 101.165 100.418 100.312 99.3071 99.2816C100.532 100.379 94.0321 101.419 99.9683 102.518ZM91.171 100.405C89.5445 100.548 89.2906 101.407 89.0953 102.403C90.396 102.664 91.5623 103.04 92.6673 102.35C92.7102 101.55 92.0863 101.069 91.171 100.405Z" fill="#5A3434"/>
<path d="M59.5423 64.309C57.8979 65.0548 56.4377 65.4994 54.9278 64.7008C53.3837 63.8842 52.7608 62.7499 53.6004 61.4542C54.5953 59.9191 56.6629 59.8908 58.3321 60.4091C60.6009 61.1136 61.1261 62.532 59.5423 64.309Z" fill="#5A3434"/>
<path d="M100.847 61.8586C101.82 59.4961 104.031 60.0627 105.966 60.4782C107.563 60.821 107.994 61.8348 107.661 62.9758C107.288 64.2559 106.112 64.951 104.359 64.8706C102.043 64.7645 100.401 64.0501 100.847 61.8586Z" fill="#5A3434"/>
</g>
<path d="M168.844 51.25C168.76 53.1458 166.458 54.3021 161.938 54.7188C161.771 55.0521 161.771 55.5417 161.938 56.1875C165.875 56.0625 168.667 56 170.312 56C172.917 56 175.885 56.0625 179.219 56.1875C179.385 55.5417 179.385 55.0521 179.219 54.7188C174.656 54.3021 172.354 53.1458 172.312 51.25C172.104 44.7708 172 39.125 172 34.3125C172 27.7292 172.083 21.9062 172.25 16.8438H172.562L187.812 55.2188H188.125L202.375 17.5938H202.656C202.865 23.8646 202.969 29.4375 202.969 34.3125C202.969 41.0833 202.865 46.8646 202.656 51.6562C202.615 52.1979 202.365 52.6667 201.906 53.0625C201.469 53.4375 200.812 53.7396 199.938 53.9688C199.062 54.1771 198.323 54.3229 197.719 54.4062C197.115 54.4896 196.344 54.5729 195.406 54.6562C195.24 54.9896 195.24 55.4792 195.406 56.125C198.948 56 202.573 55.9375 206.281 55.9375C210.719 55.9375 214.99 56 219.094 56.125C219.26 55.75 219.26 55.2604 219.094 54.6562C212.177 54.2396 208.698 53.2604 208.656 51.7188C208.406 45.1771 208.281 38.6042 208.281 32C208.281 25.6042 208.365 19.7812 208.531 14.5312C208.573 12.9896 212.052 12.0104 218.969 11.5938C219.135 10.9896 219.135 10.5 218.969 10.125C214.865 10.25 209.406 10.3125 202.594 10.3125L189.281 45.0625L176.469 10.3125C171.385 10.3125 166.885 10.2292 162.969 10.0625C162.76 10.4792 162.76 10.875 162.969 11.25C165.448 11.6042 167.062 12.125 167.812 12.8125C168.583 13.4792 168.99 15.0312 169.031 17.4688C169.177 22.5938 169.25 27.4375 169.25 32C169.25 38.3125 169.115 44.7292 168.844 51.25ZM167.562 51.25C167.833 44.6875 167.969 38.2708 167.969 32C167.969 27.4375 167.896 22.5938 167.75 17.4688C167.708 15.5521 167.333 14.3229 166.625 13.7812C165.938 13.2188 164.438 12.7812 162.125 12.4688C161.542 11.1979 161.562 9.94792 162.188 8.71875C166.979 8.92708 173.208 9.03125 180.875 9.03125L191.125 36.4062L201.688 9.03125C207.271 9.03125 213.438 8.94792 220.188 8.78125C220.604 10.1354 220.646 11.4792 220.312 12.8125C215.708 13.2708 213.385 13.8854 213.344 14.6562C213.156 18.5729 213.062 24.3542 213.062 32C213.062 39.8958 213.198 46.4271 213.469 51.5938C213.51 52.3646 215.833 52.9792 220.438 53.4375C220.771 54.7708 220.729 56.1146 220.312 57.4688C213.562 57.3021 209.635 57.2188 208.531 57.2188C206.865 57.2188 202.198 57.3021 194.531 57.4688C194.01 56.0104 194.01 54.6667 194.531 53.4375C199.052 52.9792 201.333 52.3854 201.375 51.6562C201.583 46.7812 201.688 41 201.688 34.3125C201.688 29.1042 201.667 25.2812 201.625 22.8438L189 56.5H186.906L173.281 22.1562V34.3125C173.281 39.125 173.385 44.7708 173.594 51.25C173.635 52.375 175.917 53.125 180.438 53.5C180.958 54.75 180.958 56.0938 180.438 57.5312C174.208 57.2812 167.74 57.2812 161.031 57.5312C160.531 56.0938 160.531 54.75 161.031 53.5C165.344 53.0833 167.521 52.3333 167.562 51.25ZM254.062 27.125C254.479 28.4583 254.438 29.7188 253.938 30.9062C251.333 31.0312 249.708 31.8229 249.062 33.2812L239.469 56.375L236.062 65.4062C234.708 69.0312 233.323 71.5104 231.906 72.8438C230.51 74.1979 228.76 74.875 226.656 74.875C224.906 74.875 223.5 74.3438 222.438 73.2812C221.375 72.2188 220.844 70.8958 220.844 69.3125C220.844 67.7708 221.375 66.4688 222.438 65.4062C223.5 64.3438 224.802 63.8125 226.344 63.8125C228.177 63.8125 229.646 64.5104 230.75 65.9062L234.531 55.9375L225.062 33.2812C224.604 32.0521 222.896 31.2604 219.938 30.9062C219.396 29.7188 219.354 28.4583 219.812 27.125C226.854 27.3958 233.281 27.3958 239.094 27.125C239.51 28.4583 239.469 29.7188 238.969 30.9062C237.719 30.9896 236.865 31.1875 236.406 31.5C235.969 31.7917 235.906 32.3021 236.219 33.0312L240.031 42.375L243.562 33.0312C243.812 32.3854 243.74 31.8854 243.344 31.5312C242.969 31.1562 242.104 30.9479 240.75 30.9062C240.229 29.7188 240.188 28.4583 240.625 27.125C242.333 27.2083 246.812 27.2083 254.062 27.125ZM253.094 28.2812C248.49 28.4896 244.656 28.4896 241.594 28.2812C241.365 28.8438 241.365 29.3333 241.594 29.75C242.385 29.7917 243.052 29.8854 243.594 30.0312C244.135 30.1562 244.583 30.4583 244.938 30.9375C245.292 31.3958 245.323 32.0104 245.031 32.7812L238.5 49.9688L231.906 33.5312C231.448 32.3438 231.917 31.4375 233.312 30.8125C234.729 30.1875 236.333 29.8333 238.125 29.75C238.333 29.3333 238.333 28.8438 238.125 28.2812C231.896 28.5521 226.115 28.5521 220.781 28.2812C220.573 28.8438 220.573 29.3333 220.781 29.75C223.677 30.1042 225.49 31.1146 226.219 32.7812L235.938 56L232.5 64.9062C231.812 66.8229 230.99 68.3229 230.031 69.4062C229.073 70.4896 228.083 71.0312 227.062 71.0312C225.354 71.0312 224.5 70.1771 224.5 68.4688C224.5 67.3646 224.906 66.7292 225.719 66.5625C226.01 66.0833 226.01 65.5938 225.719 65.0938C224.677 65.0938 223.812 65.4375 223.125 66.125C222.458 66.8333 222.125 67.8125 222.125 69.0625C222.125 70.4167 222.583 71.5104 223.5 72.3438C224.417 73.1771 225.583 73.5938 227 73.5938C228.708 73.5938 230.125 73 231.25 71.8125C232.375 70.625 233.583 68.3438 234.875 64.9688L238.25 55.875L247.906 32.7812C248.719 30.8854 250.448 29.875 253.094 29.75C253.302 29.3333 253.302 28.8438 253.094 28.2812Z" fill="#7B0707"/>
<path d="M200.1 98.6839L200.243 78.3625C202.237 78.1919 203.744 78.0994 204.766 78.0851C208.14 78.0377 210.836 78.7603 212.853 80.253C214.87 81.7219 215.901 84.0839 215.947 87.3392C216.051 94.7525 210.769 98.5341 200.1 98.6839ZM200.837 125.802L200.131 100.858C202.03 100.689 203.882 100.591 205.688 100.566C210.796 100.494 214.873 101.376 217.916 103.211C220.96 105.045 222.511 107.982 222.568 112.022C222.601 114.398 222.19 116.447 221.335 118.17C220.479 119.87 219.393 121.192 218.075 122.137C216.781 123.082 215.093 123.843 213.01 124.419C210.926 124.971 208.982 125.331 207.179 125.499C205.399 125.666 203.285 125.767 200.837 125.802ZM206.305 124.192C208.441 124.019 210.315 123.744 211.925 123.365C213.56 122.985 215.108 122.369 216.569 121.517C218.055 120.664 219.19 119.448 219.976 117.869C220.762 116.265 221.138 114.323 221.106 112.042C221.072 109.595 220.211 107.551 218.525 105.911C216.838 104.248 214.862 103.135 212.596 102.572C210.33 101.986 208.011 101.829 205.638 102.1L206.305 124.192ZM205.679 79.6051L205.636 96.895C211.611 95.908 214.561 92.7296 214.486 87.3597C214.417 82.4412 211.481 79.8564 205.679 79.6051ZM185.763 128.651C190.394 128.444 195.917 128.295 202.333 128.205C204.471 128.175 206.395 128.1 208.105 127.981C209.814 127.862 211.855 127.631 214.226 127.289C216.598 126.923 218.669 126.359 220.441 125.598C222.212 124.812 223.91 123.85 225.534 122.71C227.181 121.546 228.431 120.043 229.285 118.201C230.138 116.336 230.547 114.179 230.513 111.732C230.461 108.001 228.956 104.969 226 102.634C223.044 100.275 219.423 98.7809 215.136 98.1519L215.132 97.8668C217.9 96.9486 220.115 95.6104 221.778 93.8522C223.464 92.0699 224.288 89.86 224.251 87.2226C224.141 79.4053 218.146 75.5801 206.266 75.7469C205.339 75.7599 203.784 75.8293 201.599 75.955C199.414 76.0808 196.992 76.1623 194.33 76.1997C191.693 76.2367 188.615 76.1849 185.095 76.0442C184.911 76.4745 184.919 77.0329 185.119 77.7193C190.591 78.1653 193.363 79.2671 193.436 81.0247C193.752 86.6052 193.964 93.2446 194.072 100.943C194.178 108.475 194.14 115.974 193.96 123.439C193.937 125.197 191.197 126.377 185.739 126.976C185.554 127.359 185.562 127.917 185.763 128.651ZM184.076 74.5256C187.523 74.6198 190.779 74.6454 193.844 74.6023C196.91 74.5593 199.903 74.4935 202.825 74.4049C205.747 74.3164 207.742 74.2646 208.812 74.2496C210.808 74.2216 212.614 74.2675 214.232 74.3874C215.874 74.5069 217.696 74.8259 219.7 75.3444C221.703 75.8391 223.388 76.5284 224.755 77.4123C226.146 78.2958 227.317 79.5746 228.267 81.2486C229.217 82.8988 229.708 84.8645 229.74 87.1455C229.799 91.3749 227.507 94.8174 222.862 97.473C226.727 98.5357 229.865 100.286 232.276 102.724C234.71 105.137 235.952 108.114 236.002 111.655C236.034 113.959 235.671 116.032 234.913 117.873C234.154 119.69 233.177 121.212 231.982 122.441C230.787 123.646 229.257 124.702 227.393 125.607C225.527 126.489 223.731 127.179 222.003 127.679C220.275 128.155 218.284 128.539 216.03 128.832C213.777 129.149 211.843 129.355 210.228 129.449C208.638 129.542 206.868 129.603 204.919 129.63C199.264 129.709 192.553 129.899 184.786 130.198C184.169 128.567 184.148 127.034 184.722 125.6C189.87 125.005 192.462 124.268 192.498 123.388C192.678 115.923 192.716 108.448 192.61 100.964C192.503 93.3126 192.291 86.697 191.975 81.1165C191.915 80.2381 189.256 79.5743 183.998 79.1253C183.573 77.6103 183.599 76.0771 184.076 74.5256ZM262.579 125.719C256.916 125.276 254.049 124.175 253.977 122.418C253.554 109.257 253.234 93.2085 253.016 74.2705C252.82 73.893 252.4 73.5781 251.755 73.3257C248.474 74.9403 245.054 75.9627 241.495 76.3929C241.361 76.989 241.369 77.5473 241.519 78.0681C244.206 78.1967 246.256 78.6551 247.67 79.4433C248.111 97.3086 248.288 111.66 248.203 122.499C248.18 124.258 246.177 125.426 242.192 126.005C241.963 126.603 241.971 127.185 242.217 127.752C247.726 127.484 254.522 127.389 262.603 127.465C262.833 126.892 262.825 126.31 262.579 125.719ZM263.843 124.382C264.268 125.85 264.288 127.287 263.904 128.695C254.753 128.633 247.09 128.741 240.915 129.018C240.516 127.621 240.495 126.184 240.855 124.705C244.746 124.27 246.708 123.518 246.741 122.448C246.83 108.496 246.657 94.4653 246.221 80.3548C244.622 79.8782 242.622 79.5855 240.22 79.4766C239.677 78.082 239.656 76.5732 240.156 74.9502C243.765 74.7094 247.789 73.5834 252.229 71.5723C254.822 71.726 256.757 72.4831 258.036 73.8436C258.238 95.0157 258.56 111.16 259.001 122.276C259.064 123.344 260.678 124.046 263.843 124.382ZM286.094 96.9416C288.542 96.9073 290.495 98.0562 291.954 100.389C293.436 102.697 294.211 106.31 294.28 111.228C294.349 116.147 293.675 119.781 292.259 122.13C290.866 124.478 288.946 125.67 286.498 125.704C285.144 125.723 283.904 125.455 282.78 124.901C281.679 124.346 280.728 123.48 279.927 122.303C279.15 121.125 278.535 119.649 278.082 117.873C277.629 116.073 277.385 113.937 277.351 111.466C277.316 109.019 277.5 106.889 277.903 105.077C278.305 103.242 278.878 101.737 279.622 100.562C280.389 99.3626 281.315 98.4703 282.4 97.8847C283.509 97.275 284.74 96.9606 286.094 96.9416ZM286.531 128.056C288.741 128.025 290.719 127.582 292.466 126.725C294.213 125.869 295.693 124.695 296.908 123.205C298.146 121.69 299.084 119.907 299.72 117.854C300.357 115.801 300.658 113.563 300.624 111.139C300.59 108.716 300.226 106.487 299.532 104.453C298.838 102.419 297.851 100.674 296.571 99.2186C295.315 97.739 293.801 96.5957 292.032 95.7888C290.262 94.9819 288.272 94.5939 286.062 94.625C283.71 94.658 281.589 95.1037 279.7 95.962C277.811 96.8203 276.211 97.9954 274.901 99.4872C273.615 100.979 272.63 102.763 271.946 104.84C271.262 106.894 270.937 109.132 270.971 111.556C271.005 114.003 271.393 116.244 272.135 118.277C272.876 120.31 273.911 122.066 275.239 123.545C276.59 124.999 278.222 126.129 280.135 126.934C282.047 127.715 284.179 128.089 286.531 128.056ZM287.289 93.1462C290.164 93.1058 292.724 93.5095 294.97 94.3573C297.24 95.2047 299.158 96.4255 300.725 98.0195C302.292 99.5898 303.495 101.486 304.334 103.708C305.174 105.93 305.612 108.384 305.65 111.069C305.687 113.73 305.318 116.183 304.541 118.428C303.765 120.673 302.615 122.614 301.094 124.251C299.595 125.865 297.724 127.127 295.479 128.038C293.234 128.972 290.674 129.46 287.799 129.5C284.948 129.54 282.387 129.124 280.117 128.253C277.872 127.405 275.965 126.196 274.399 124.626C272.855 123.032 271.664 121.135 270.825 118.937C269.986 116.715 269.547 114.261 269.51 111.576C269.472 108.891 269.841 106.426 270.618 104.182C271.394 101.937 272.544 100.008 274.066 98.3939C275.588 96.7564 277.459 95.4825 279.68 94.572C281.901 93.6615 284.438 93.1862 287.289 93.1462ZM282.376 111.396C282.484 119.07 284.266 123.299 287.723 124.083C291.228 123.202 292.927 118.924 292.819 111.249C292.712 103.646 290.894 99.4052 287.364 98.5279C283.932 99.503 282.269 103.792 282.376 111.396ZM320.299 105.872C320.253 102.57 320.837 100.173 322.052 98.6825C323.29 97.1679 324.86 96.3973 326.761 96.3706C328.163 96.3509 329.467 97.0099 330.674 98.3476C331.905 99.6612 332.542 101.898 332.587 105.058C332.682 111.83 330.876 115.242 327.169 115.294C322.678 115.357 320.388 112.217 320.299 105.872ZM320.58 136.027C320.544 133.413 322.023 131.277 325.018 129.619C326.916 129.402 329.837 129.266 333.781 129.211C336.609 129.171 338.505 129.667 339.47 130.699C340.435 131.732 340.932 133.246 340.96 135.241C340.984 136.952 340.094 138.735 338.29 140.591C336.487 142.47 333.767 143.435 330.132 143.486C326.853 143.532 324.442 142.817 322.901 141.341C321.383 139.889 320.61 138.118 320.58 136.027ZM342.931 95.3593C343.573 95.3978 343.899 95.7259 343.907 96.3437C343.918 97.1278 343.438 97.598 342.465 97.7542C341.635 97.8609 340.611 97.6852 339.392 97.227C338.747 96.9984 337.923 96.6773 336.919 96.2636C335.915 95.8262 335.209 95.5271 334.803 95.3665C334.397 95.182 333.835 94.976 333.119 94.7484C332.403 94.5208 331.783 94.3751 331.259 94.3111C330.759 94.2469 330.129 94.1844 329.367 94.1238C328.63 94.0629 327.798 94.0389 326.871 94.0519C323.259 94.1026 320.211 95.3575 317.727 97.8164C315.266 100.275 314.056 102.966 314.097 105.888C314.163 110.617 316.363 114.139 320.698 116.454C316.889 119.383 315 121.988 315.032 124.269C315.073 127.144 317.379 128.895 321.95 129.52C317.329 132.104 315.043 135.154 315.092 138.67C315.124 140.951 316.22 142.837 318.38 144.328C320.54 145.842 323.687 146.571 327.821 146.512C332.74 146.443 336.875 144.757 340.227 141.455C343.603 138.151 345.267 134.813 345.22 131.439C345.144 125.997 341.791 123.323 335.161 123.416C334.425 123.427 333.451 123.464 332.24 123.529C331.029 123.593 330.197 123.629 329.746 123.635C326.111 123.686 323.541 123.485 322.038 123.03C320.557 122.552 319.81 121.778 319.795 120.709C319.776 119.355 320.806 118.223 322.884 117.315C324.337 117.532 325.871 117.629 327.487 117.607C330.695 117.562 333.388 116.407 335.566 114.142C337.768 111.877 338.842 108.844 338.789 105.042C338.747 102.025 338.144 99.7518 336.982 98.2233L337.158 98.0426C337.542 98.2987 338.058 98.6598 338.706 99.126C339.378 99.5681 339.881 99.8819 340.216 100.067C340.576 100.252 341.03 100.436 341.579 100.619C342.152 100.801 342.711 100.888 343.258 100.88C344.161 100.867 344.916 100.512 345.524 99.8145C346.132 99.093 346.429 98.2452 346.416 97.271C346.401 96.2493 346.092 95.3981 345.489 94.7173C344.908 94.0125 344.048 93.6681 342.907 93.6841C342.583 94.3066 342.591 94.865 342.931 95.3593ZM343.492 102.338C343.693 103.12 343.801 103.998 343.814 104.972C343.874 109.201 342.567 112.594 339.894 115.151C337.244 117.684 333.97 118.977 330.074 119.032L325.618 119.094C324.94 119.888 324.748 120.592 325.042 121.206C325.359 121.795 325.934 122.084 326.765 122.073L338.705 121.905C346.308 121.798 350.155 124.953 350.245 131.368C350.269 133.079 349.784 134.88 348.788 136.771C347.793 138.663 346.392 140.429 344.585 142.071C342.778 143.736 340.398 145.124 337.443 146.235C334.487 147.346 331.287 147.925 327.842 147.974C323.209 148.039 319.691 147.185 317.29 145.413C314.889 143.664 313.669 141.423 313.631 138.691C313.588 135.673 315.129 132.847 318.253 130.213C315.173 129.187 313.612 127.213 313.571 124.29C313.536 121.771 315.056 119.195 318.132 116.562C314.532 114.045 312.7 110.495 312.636 105.909C312.59 102.654 313.95 99.64 316.715 96.8681C319.48 94.0725 322.859 92.6467 326.85 92.5906C329.82 92.5489 332.009 92.6727 333.415 92.9619C334.845 93.2508 336.635 93.8197 338.786 94.6689C339.833 93.0619 341.2 92.2465 342.887 92.2229C344.55 92.1995 345.792 92.6692 346.614 93.6321C347.436 94.5949 347.857 95.8011 347.877 97.2505C347.897 98.6523 347.509 99.846 346.715 100.832C345.921 101.817 344.847 102.319 343.492 102.338ZM325.641 135.956C325.663 137.476 326.121 138.801 327.016 139.929C327.935 141.057 329.394 141.725 331.393 141.935C334.122 141.659 336.154 140.787 337.488 139.318C338.846 137.873 339.516 136.521 339.499 135.262C339.478 133.789 339.129 132.641 338.452 131.819C337.775 131.02 336.499 130.634 334.622 130.661C332.364 130.692 330.144 130.819 327.961 131.039C326.388 132.416 325.615 134.055 325.641 135.956ZM325.36 105.801C325.423 110.292 326.434 112.892 328.393 113.601C330.284 112.838 331.194 109.997 331.125 105.079C331.071 101.182 330.04 98.8556 328.033 98.0995C326.191 98.9096 325.3 101.477 325.36 105.801Z" fill="#C44141"/>
</g>
<defs>
<clipPath id="clip0_1_2">
<rect width="363" height="149" fill="white"/>
</clipPath>
<clipPath id="clip1_1_2">
<rect width="188" height="155" fill="white" transform="translate(-17)"/>
</clipPath>
</defs>
</svg>
